<svg width="1280" height="720" xmlns="http://www.w3.org/2000/svg" xmlns:xlink="http://www.w3.org/1999/xlink" overflow="hidden"><defs><clipPath id="clip0"><rect x="0" y="0" width="1280" height="720"/></clipPath><linearGradient x1="1280" y1="377" x2="-40" y2="377" gradientUnits="userSpaceOnUse" spreadMethod="reflect" id="fill1"><stop offset="0" stop-color="#F9D073"/><stop offset="0.38" stop-color="#F9D073"/><stop offset="1" stop-color="#F9D073" stop-opacity="0"/></linearGradient></defs><g clip-path="url(#clip0)"><rect x="0" y="0" width="1280" height="720" fill="#F9D073"/><g><g><g><path d="M0 18.4813 133.818 18.4813" stroke="#000000" stroke-width="0.342246" fill="none" transform="matrix(1 0 0 1.00439 10.2674 85.375)"/><path d="M0 24.6417 133.818 24.6417" stroke="#000000" stroke-width="0.342246" fill="none" transform="matrix(1 0 0 1.00439 10.2674 85.375)"/><path d="M0 30.8021 133.818 30.8021" stroke="#000000" stroke-width="0.342246" fill="none" transform="matrix(1 0 0 1.00439 10.2674 85.375)"/><path d="M0 36.9626 133.818 36.9626" stroke="#000000" stroke-width="0.342246" fill="none" transform="matrix(1 0 0 1.00439 10.2674 85.375)"/><path d="M0 43.123 133.818 43.123" stroke="#000000" stroke-width="0.342246" fill="none" transform="matrix(1 0 0 1.00439 10.2674 85.375)"/><path d="M3.03093-12.6412C3.03093-11.0148 4.11517-9.61027 5.84009-9.61027 7.68821-9.61027 8.69852-11.0148 8.69852-12.3455 8.69852-13.9226 7.54036-14.9082 6.3822-15.1054 6.30828-15.1054 6.25899-15.13 6.25899-15.1793 6.25899-15.2039 6.30828-15.2286 6.33292-15.2532 6.3822-15.2532 6.89968-15.3764 7.49108-15.3764 9.97989-15.3764 11.3105-14.0211 11.3105-11.4584 11.3105-10.1524 11.0148-8.42747 10.5467-6.06186 9.97989-6.16043 9.31457-6.23435 8.59996-6.23435 4.0166-6.23435 0-2.61202 0 1.99598 0 6.92432 3.10486 9.93061 5.34725 12.0005 5.86473 12.4194 7.1461 13.7254 7.17074 13.7501 6.75183 16.5099 6.62862 17.7174 6.62862 19.048 6.62862 21.1179 7.07217 24.2721 8.64924 26.1449 9.46242 27.1059 10.2263 27.4016 10.3988 27.4016 10.8424 27.4016 11.557 26.5391 12.1484 25.2824 12.5426 24.3953 13.2326 22.5718 13.2326 20.3294 13.2326 16.4114 11.4338 13.3312 8.84637 10.5959 9.04351 9.216 9.28993 7.76214 9.53634 6.28364 13.134 6.28364 15.7707 3.77018 15.7707 0.0492834 15.7707-2.48881 13.9719-5.00227 11.557-5.7908 11.7048-6.75183 11.8527-7.49108 11.9266-7.98391 12.173-9.38849 12.3209-10.4974 12.3209-11.4584 12.3209-13.0108 11.9759-14.6372 10.6452-15.5736 9.75812-16.1157 8.74781-16.4114 7.58965-16.4114 4.26302-16.4114 3.03093-14.2676 3.03093-12.6412ZM8.18105 20.2555C7.98391 19.4916 7.90999 18.6538 7.90999 17.742 7.90999 16.7071 8.0332 15.7461 8.18105 14.7604 9.88133 16.436 11.7787 18.3581 11.7787 20.9208 11.7787 22.6457 11.1873 23.8285 10.8177 23.8285 9.53634 23.8285 8.40282 21.2412 8.18105 20.2555ZM10.3495-5.07619 8.9203 3.03093C7.49108 2.68595 6.35756 1.4785 6.35756-0.0246417 6.35756-1.23209 6.89968-1.87277 7.86071-2.46417 8.15641-2.6613 8.40282-2.78451 8.40282-3.00629 8.40282-3.22806 8.18105-3.32663 7.98391-3.32663 6.01258-3.32663 4.65728-0.961027 4.65728 0.763893 4.65728 3.08021 6.18507 5.44582 8.42747 6.11114 8.25497 7.12145 8.08248 8.27962 7.86071 9.61027 7.49108 9.24064 7.09681 8.89566 6.6779 8.52603 4.50943 6.65326 2.39025 3.96732 2.39025 0.961027 2.39025-2.75987 5.39653-5.22404 8.9203-5.22404 9.38849-5.22404 9.85668-5.17476 10.3495-5.07619ZM13.8486-0.517476C13.8486 1.67564 12.2469 3.17878 10.0292 3.17878 10.2017 2.09455 10.867-1.82349 11.3845-4.78049 13.134-4.06588 13.8486-2.26704 13.8486-0.517476Z" transform="matrix(1 0 0 -1.00439 14.8877 122.5)"/><path d="M5.12548-3.1295 0.887102-3.1295C0.665326-3.1295 0.616043-2.98165 0.616043-2.98165 0.616043-2.98165 0.468193-2.71059 0.369626-2.5381 0.344984-2.48881 0.344984-2.43953 0.344984-2.39025 0.344984-2.2424 0.418909-2.11919 0.418909-2.11919 1.05959-1.20744 1.79884 0.0246417 2.43953 2.02062 3.08021 4.0166 3.20342 5.84009 3.20342 5.84009 3.22806 5.98794 3.35127 6.13579 3.54841 6.13579L7.19538 6.13579C7.29395 6.13579 7.39251 6.0865 7.4418 6.03722L7.98391 5.4951C8.00856 5.47046 8.05784 5.37189 8.05784 5.24868 8.05784 5.15012 8.0332 5.02691 7.93463 4.9037 5.02691 1.01031 2.29168-1.9467 2.29168-1.9467L5.12548-1.9467 5.12548 0.0739251C5.12548 0.172492 5.15012 0.271059 5.22404 0.344984L7.46644 2.39025C7.51572 2.43953 7.61429 2.46417 7.68821 2.48881 7.7375 2.48881 7.81142 2.46417 7.86071 2.43953L8.15641 2.29168C8.27962 2.2424 8.35354 2.11919 8.35354 1.97134L8.35354-1.9467 10.5467-1.9467C10.7438-1.9467 10.8916-2.11919 10.8916-2.29168L10.8916-2.75987C10.8916-2.95701 10.7438-3.1295 10.5467-3.1295L8.35354-3.1295 8.35354-4.95298 10.5467-4.95298C10.7438-4.95298 10.8916-5.10083 10.8916-5.29797L10.8916-5.76616C10.8916-5.96329 10.7438-6.11114 10.5467-6.11114L3.08021-6.11114C2.90772-6.11114 2.73523-5.96329 2.73523-5.76616L2.73523-5.29797C2.73523-5.10083 2.90772-4.95298 3.08021-4.95298L5.12548-4.95298 5.12548-3.1295Z" transform="matrix(1 0 0 -1.00439 36.4492 110.125)"/><path d="M5.12548-3.1295 0.887102-3.1295C0.665326-3.1295 0.616043-2.98165 0.616043-2.98165 0.616043-2.98165 0.468193-2.71059 0.369626-2.5381 0.344984-2.48881 0.344984-2.43953 0.344984-2.39025 0.344984-2.2424 0.418909-2.11919 0.418909-2.11919 1.05959-1.20744 1.79884 0.0246417 2.43953 2.02062 3.08021 4.0166 3.20342 5.84009 3.20342 5.84009 3.22806 5.98794 3.35127 6.13579 3.54841 6.13579L7.19538 6.13579C7.29395 6.13579 7.39251 6.0865 7.4418 6.03722L7.98391 5.4951C8.00856 5.47046 8.05784 5.37189 8.05784 5.24868 8.05784 5.15012 8.0332 5.02691 7.93463 4.9037 5.02691 1.01031 2.29168-1.9467 2.29168-1.9467L5.12548-1.9467 5.12548 0.0739251C5.12548 0.172492 5.15012 0.271059 5.22404 0.344984L7.46644 2.39025C7.51572 2.43953 7.61429 2.46417 7.68821 2.48881 7.7375 2.48881 7.81142 2.46417 7.86071 2.43953L8.15641 2.29168C8.27962 2.2424 8.35354 2.11919 8.35354 1.97134L8.35354-1.9467 10.5467-1.9467C10.7438-1.9467 10.8916-2.11919 10.8916-2.29168L10.8916-2.75987C10.8916-2.95701 10.7438-3.1295 10.5467-3.1295L8.35354-3.1295 8.35354-4.95298 10.5467-4.95298C10.7438-4.95298 10.8916-5.10083 10.8916-5.29797L10.8916-5.76616C10.8916-5.96329 10.7438-6.11114 10.5467-6.11114L3.08021-6.11114C2.90772-6.11114 2.73523-5.96329 2.73523-5.76616L2.73523-5.29797C2.73523-5.10083 2.90772-4.95298 3.08021-4.95298L5.12548-4.95298 5.12548-3.1295Z" transform="matrix(1 0 0 -1.00439 36.4492 122.5)"/><path d="M5.24868 3.25271C6.77647 3.25271 8.00856 2.43953 8.00856 0.985668 8.00856-1.1828 5.32261-3.27735 2.75987-3.27735 0.763893-3.27735 0-2.09455 0-1.03495 0 1.25673 2.85844 3.25271 5.24868 3.25271ZM1.84813-2.11919C2.98165-2.11919 7.1461-0.0246417 7.1461 1.20744 7.1461 1.74956 6.75183 2.09455 6.16043 2.09455 5.00227 2.09455 0.86246-0.0246417 0.86246-1.23209 0.86246-1.45386 1.03495-2.11919 1.84813-2.11919Z" transform="matrix(1 0 0 -1.00439 57.8053 122.5)"/><path d="M55.2043 36.0043 55.2043 15.4011" stroke="#000000" stroke-width="0.616043" fill="none" transform="matrix(1 0 0 1.00439 10.2674 85.375)"/><path d="M5.24868 3.25271C6.77647 3.25271 8.00856 2.43953 8.00856 0.985668 8.00856-1.1828 5.32261-3.27735 2.75987-3.27735 0.763893-3.27735 0-2.09455 0-1.03495 0 1.25673 2.85844 3.25271 5.24868 3.25271ZM1.84813-2.11919C2.98165-2.11919 7.1461-0.0246417 7.1461 1.20744 7.1461 1.74956 6.75183 2.09455 6.16043 2.09455 5.00227 2.09455 0.86246-0.0246417 0.86246-1.23209 0.86246-1.45386 1.03495-2.11919 1.84813-2.11919Z" transform="matrix(1 0 0 -1.00439 100.86 128.688)"/><path d="M98.2588 42.1647 98.2588 21.5615" stroke="#000000" stroke-width="0.616043" fill="none" transform="matrix(1 0 0 1.00439 10.2674 85.375)"/><path d="M133.647 18.4813 133.647 43.123" stroke="#000000" stroke-width="0.342246" fill="none" transform="matrix(1 0 0 1.00439 10.2674 85.375)"/><path d="M133.818 18.4813 227.491 18.4813" stroke="#000000" stroke-width="0.342246" fill="none" transform="matrix(1 0 0 1.00439 10.2674 85.375)"/><path d="M133.818 24.6417 227.491 24.6417" stroke="#000000" stroke-width="0.342246" fill="none" transform="matrix(1 0 0 1.00439 10.2674 85.375)"/><path d="M133.818 30.8021 227.491 30.8021" stroke="#000000" stroke-width="0.342246" fill="none" transform="matrix(1 0 0 1.00439 10.2674 85.375)"/><path d="M133.818 36.9626 227.491 36.9626" stroke="#000000" stroke-width="0.342246" fill="none" transform="matrix(1 0 0 1.00439 10.2674 85.375)"/><path d="M133.818 43.123 227.491 43.123" stroke="#000000" stroke-width="0.342246" fill="none" transform="matrix(1 0 0 1.00439 10.2674 85.375)"/><path d="M5.24868 3.25271C6.77647 3.25271 8.00856 2.43953 8.00856 0.985668 8.00856-1.1828 5.32261-3.27735 2.75987-3.27735 0.763893-3.27735 0-2.09455 0-1.03495 0 1.25673 2.85844 3.25271 5.24868 3.25271ZM1.84813-2.11919C2.98165-2.11919 7.1461-0.0246417 7.1461 1.20744 7.1461 1.74956 6.75183 2.09455 6.16043 2.09455 5.00227 2.09455 0.86246-0.0246417 0.86246-1.23209 0.86246-1.45386 1.03495-2.11919 1.84813-2.11919Z" transform="matrix(1 0 0 -1.00439 151.478 122.5)"/><path d="M148.877 36.0043 148.877 15.4011" stroke="#000000" stroke-width="0.616043" fill="none" transform="matrix(1 0 0 1.00439 10.2674 85.375)"/><path d="M5.24868 3.25271C6.77647 3.25271 8.00856 2.43953 8.00856 0.985668 8.00856-1.1828 5.32261-3.27735 2.75987-3.27735 0.763893-3.27735 0-2.09455 0-1.03495 0 1.25673 2.85844 3.25271 5.24868 3.25271ZM1.84813-2.11919C2.98165-2.11919 7.1461-0.0246417 7.1461 1.20744 7.1461 1.74956 6.75183 2.09455 6.16043 2.09455 5.00227 2.09455 0.86246-0.0246417 0.86246-1.23209 0.86246-1.45386 1.03495-2.11919 1.84813-2.11919Z" transform="matrix(1 0 0 -1.00439 194.533 128.688)"/><path d="M191.932 42.1647 191.932 21.5615" stroke="#000000" stroke-width="0.616043" fill="none" transform="matrix(1 0 0 1.00439 10.2674 85.375)"/><path d="M227.32 18.4813 227.32 43.123" stroke="#000000" stroke-width="0.342246" fill="none" transform="matrix(1 0 0 1.00439 10.2674 85.375)"/><path d="M227.491 18.4813 348.201 18.4813" stroke="#000000" stroke-width="0.342246" fill="none" transform="matrix(1 0 0 1.00439 10.2674 85.375)"/><path d="M227.491 24.6417 348.201 24.6417" stroke="#000000" stroke-width="0.342246" fill="none" transform="matrix(1 0 0 1.00439 10.2674 85.375)"/><path d="M227.491 30.8021 348.201 30.8021" stroke="#000000" stroke-width="0.342246" fill="none" transform="matrix(1 0 0 1.00439 10.2674 85.375)"/><path d="M227.491 36.9626 348.201 36.9626" stroke="#000000" stroke-width="0.342246" fill="none" transform="matrix(1 0 0 1.00439 10.2674 85.375)"/><path d="M227.491 43.123 348.201 43.123" stroke="#000000" stroke-width="0.342246" fill="none" transform="matrix(1 0 0 1.00439 10.2674 85.375)"/><path d="M0-1.03495C0 1.23209 2.85844 3.25271 5.24868 3.25271 6.77647 3.25271 8.00856 2.43953 8.00856 0.985668 8.00856-1.1828 5.32261-3.27735 2.75987-3.27735 0.763893-3.27735 0-2.09455 0-1.03495Z" transform="matrix(1 0 0 -1.00439 245.151 125.594)"/><path d="M242.55 39.0845 242.55 18.4813" stroke="#000000" stroke-width="0.616043" fill="none" transform="matrix(1 0 0 1.00439 10.2674 85.375)"/><path d="M0-1.03495C0 1.23209 2.85844 3.25271 5.24868 3.25271 6.77647 3.25271 8.00856 2.43953 8.00856 0.985668 8.00856-1.1828 5.32261-3.27735 2.75987-3.27735 0.763893-3.27735 0-2.09455 0-1.03495Z" transform="matrix(1 0 0 -1.00439 273.455 128.688)"/><path d="M270.853 42.1647 270.853 21.5615" stroke="#000000" stroke-width="0.616043" fill="none" transform="matrix(1 0 0 1.00439 10.2674 85.375)"/><path d="M0-1.03495C0 1.23209 2.85844 3.25271 5.24868 3.25271 6.77647 3.25271 8.00856 2.43953 8.00856 0.985668 8.00856-1.1828 5.32261-3.27735 2.75987-3.27735 0.763893-3.27735 0-2.09455 0-1.03495Z" transform="matrix(1 0 0 -1.00439 301.724 125.594)"/><path d="M299.123 39.0845 299.123 18.4813" stroke="#000000" stroke-width="0.616043" fill="none" transform="matrix(1 0 0 1.00439 10.2674 85.375)"/><path d="M0-1.03495C0 1.23209 2.85844 3.25271 5.24868 3.25271 6.77647 3.25271 8.00856 2.43953 8.00856 0.985668 8.00856-1.1828 5.32261-3.27735 2.75987-3.27735 0.763893-3.27735 0-2.09455 0-1.03495Z" transform="matrix(1 0 0 -1.00439 330.028 122.5)"/><path d="M327.427 36.0043 327.427 15.4011" stroke="#000000" stroke-width="0.616043" fill="none" transform="matrix(1 0 0 1.00439 10.2674 85.375)"/><path d="M348.03 18.4813 348.03 43.123" stroke="#000000" stroke-width="0.342246" fill="none" transform="matrix(1 0 0 1.00439 10.2674 85.375)"/><path d="M348.201 18.4813 420.963 18.4813" stroke="#000000" stroke-width="0.342246" fill="none" transform="matrix(1 0 0 1.00439 10.2674 85.375)"/><path d="M348.201 24.6417 420.963 24.6417" stroke="#000000" stroke-width="0.342246" fill="none" transform="matrix(1 0 0 1.00439 10.2674 85.375)"/><path d="M348.201 30.8021 420.963 30.8021" stroke="#000000" stroke-width="0.342246" fill="none" transform="matrix(1 0 0 1.00439 10.2674 85.375)"/><path d="M348.201 36.9626 420.963 36.9626" stroke="#000000" stroke-width="0.342246" fill="none" transform="matrix(1 0 0 1.00439 10.2674 85.375)"/><path d="M348.201 43.123 420.963 43.123" stroke="#000000" stroke-width="0.342246" fill="none" transform="matrix(1 0 0 1.00439 10.2674 85.375)"/><path d="M4.608 3.35127C8.00856 3.35127 9.19136 1.62635 9.19136 0.0246417 9.19136-1.57707 8.00856-3.30199 4.608-3.30199 1.20744-3.30199 0-1.57707 0 0.0246417 0 1.62635 1.20744 3.35127 4.608 3.35127ZM4.80513-2.51345C5.7908-2.51345 6.6779-2.31632 6.6779-1.10888 6.6779-0.492834 6.20971 1.10888 5.86473 1.74956 5.51974 2.41489 5.07619 2.56274 4.41087 2.56274 4.0166 2.56274 3.62233 2.51345 3.32663 2.41489 2.73523 2.21775 2.48881 1.82349 2.5381 1.15816 2.56274 0.517476 3.00629-1.08424 3.32663-1.70028 3.64697-2.31632 4.11517-2.51345 4.80513-2.51345Z" transform="matrix(1 0 0 -1.00439 365.861 128.688)"/><path d="M420.791 18.4813 420.791 43.123" stroke="#000000" stroke-width="0.342246" fill="none" transform="matrix(1 0 0 1.00439 10.2674 85.375)"/><path d="M420.963 18.4813 541.673 18.4813" stroke="#000000" stroke-width="0.342246" fill="none" transform="matrix(1 0 0 1.00439 10.2674 85.375)"/><path d="M420.963 24.6417 541.673 24.6417" stroke="#000000" stroke-width="0.342246" fill="none" transform="matrix(1 0 0 1.00439 10.2674 85.375)"/><path d="M420.963 30.8021 541.673 30.8021" stroke="#000000" stroke-width="0.342246" fill="none" transform="matrix(1 0 0 1.00439 10.2674 85.375)"/><path d="M420.963 36.9626 541.673 36.9626" stroke="#000000" stroke-width="0.342246" fill="none" transform="matrix(1 0 0 1.00439 10.2674 85.375)"/><path d="M420.963 43.123 541.673 43.123" stroke="#000000" stroke-width="0.342246" fill="none" transform="matrix(1 0 0 1.00439 10.2674 85.375)"/><path d="M0-1.03495C0 1.23209 2.85844 3.25271 5.24868 3.25271 6.77647 3.25271 8.00856 2.43953 8.00856 0.985668 8.00856-1.1828 5.32261-3.27735 2.75987-3.27735 0.763893-3.27735 0-2.09455 0-1.03495Z" transform="matrix(1 0 0 -1.00439 438.622 131.781)"/><path d="M436.021 45.2449 436.021 24.6417" stroke="#000000" stroke-width="0.616043" fill="none" transform="matrix(1 0 0 1.00439 10.2674 85.375)"/><path d="M0-1.03495C0 1.23209 2.85844 3.25271 5.24868 3.25271 6.77647 3.25271 8.00856 2.43953 8.00856 0.985668 8.00856-1.1828 5.32261-3.27735 2.75987-3.27735 0.763893-3.27735 0-2.09455 0-1.03495Z" transform="matrix(1 0 0 -1.00439 466.926 131.781)"/><path d="M464.325 45.2449 464.325 24.6417" stroke="#000000" stroke-width="0.616043" fill="none" transform="matrix(1 0 0 1.00439 10.2674 85.375)"/><path d="M0-1.03495C0 1.23209 2.85844 3.25271 5.24868 3.25271 6.77647 3.25271 8.00856 2.43953 8.00856 0.985668 8.00856-1.1828 5.32261-3.27735 2.75987-3.27735 0.763893-3.27735 0-2.09455 0-1.03495Z" transform="matrix(1 0 0 -1.00439 495.196 125.594)"/><path d="M492.595 39.0845 492.595 18.4813" stroke="#000000" stroke-width="0.616043" fill="none" transform="matrix(1 0 0 1.00439 10.2674 85.375)"/><path d="M0-1.03495C0 1.23209 2.85844 3.25271 5.24868 3.25271 6.77647 3.25271 8.00856 2.43953 8.00856 0.985668 8.00856-1.1828 5.32261-3.27735 2.75987-3.27735 0.763893-3.27735 0-2.09455 0-1.03495Z" transform="matrix(1 0 0 -1.00439 523.499 125.594)"/><path d="M520.898 39.0845 520.898 18.4813" stroke="#000000" stroke-width="0.616043" fill="none" transform="matrix(1 0 0 1.00439 10.2674 85.375)"/><path d="M541.502 18.4813 541.502 43.123" stroke="#000000" stroke-width="0.342246" fill="none" transform="matrix(1 0 0 1.00439 10.2674 85.375)"/><path d="M541.673 18.4813 648.864 18.4813" stroke="#000000" stroke-width="0.342246" fill="none" transform="matrix(1 0 0 1.00439 10.2674 85.375)"/><path d="M541.673 24.6417 648.864 24.6417" stroke="#000000" stroke-width="0.342246" fill="none" transform="matrix(1 0 0 1.00439 10.2674 85.375)"/><path d="M541.673 30.8021 648.864 30.8021" stroke="#000000" stroke-width="0.342246" fill="none" transform="matrix(1 0 0 1.00439 10.2674 85.375)"/><path d="M541.673 36.9626 648.864 36.9626" stroke="#000000" stroke-width="0.342246" fill="none" transform="matrix(1 0 0 1.00439 10.2674 85.375)"/><path d="M541.673 43.123 648.864 43.123" stroke="#000000" stroke-width="0.342246" fill="none" transform="matrix(1 0 0 1.00439 10.2674 85.375)"/><path d="M0-1.03495C0 1.23209 2.85844 3.25271 5.24868 3.25271 6.77647 3.25271 8.00856 2.43953 8.00856 0.985668 8.00856-1.1828 5.32261-3.27735 2.75987-3.27735 0.763893-3.27735 0-2.09455 0-1.03495Z" transform="matrix(1 0 0 -1.00439 559.333 128.688)"/><path d="M556.732 42.1647 556.732 21.5615" stroke="#000000" stroke-width="0.616043" fill="none" transform="matrix(1 0 0 1.00439 10.2674 85.375)"/><path d="M0-1.03495C0 1.23209 2.85844 3.25271 5.24868 3.25271 6.77647 3.25271 8.00856 2.43953 8.00856 0.985668 8.00856-1.1828 5.32261-3.27735 2.75987-3.27735 0.763893-3.27735 0-2.09455 0-1.03495Z" transform="matrix(1 0 0 -1.00439 587.636 125.594)"/><path d="M585.035 39.0845 585.035 18.4813" stroke="#000000" stroke-width="0.616043" fill="none" transform="matrix(1 0 0 1.00439 10.2674 85.375)"/><path d="M5.24868 3.25271C6.77647 3.25271 8.00856 2.43953 8.00856 0.985668 8.00856-1.1828 5.32261-3.27735 2.75987-3.27735 0.763893-3.27735 0-2.09455 0-1.03495 0 1.25673 2.85844 3.25271 5.24868 3.25271ZM1.84813-2.11919C2.98165-2.11919 7.1461-0.0246417 7.1461 1.20744 7.1461 1.74956 6.75183 2.09455 6.16043 2.09455 5.00227 2.09455 0.86246-0.0246417 0.86246-1.23209 0.86246-1.45386 1.03495-2.11919 1.84813-2.11919Z" transform="matrix(1 0 0 -1.00439 615.906 122.5)"/><path d="M613.305 36.0043 613.305 15.4011" stroke="#000000" stroke-width="0.616043" fill="none" transform="matrix(1 0 0 1.00439 10.2674 85.375)"/><path d="M648.693 18.4813 648.693 43.123" stroke="#000000" stroke-width="0.342246" fill="none" transform="matrix(1 0 0 1.00439 10.2674 85.375)"/><path d="M648.864 18.4813 769.574 18.4813" stroke="#000000" stroke-width="0.342246" fill="none" transform="matrix(1 0 0 1.00439 10.2674 85.375)"/><path d="M648.864 24.6417 769.574 24.6417" stroke="#000000" stroke-width="0.342246" fill="none" transform="matrix(1 0 0 1.00439 10.2674 85.375)"/><path d="M648.864 30.8021 769.574 30.8021" stroke="#000000" stroke-width="0.342246" fill="none" transform="matrix(1 0 0 1.00439 10.2674 85.375)"/><path d="M648.864 36.9626 769.574 36.9626" stroke="#000000" stroke-width="0.342246" fill="none" transform="matrix(1 0 0 1.00439 10.2674 85.375)"/><path d="M648.864 43.123 769.574 43.123" stroke="#000000" stroke-width="0.342246" fill="none" transform="matrix(1 0 0 1.00439 10.2674 85.375)"/><path d="M0-1.03495C0 1.23209 2.85844 3.25271 5.24868 3.25271 6.77647 3.25271 8.00856 2.43953 8.00856 0.985668 8.00856-1.1828 5.32261-3.27735 2.75987-3.27735 0.763893-3.27735 0-2.09455 0-1.03495Z" transform="matrix(1 0 0 -1.00439 666.524 131.781)"/><path d="M663.923 45.2449 663.923 24.6417" stroke="#000000" stroke-width="0.616043" fill="none" transform="matrix(1 0 0 1.00439 10.2674 85.375)"/><path d="M0-1.03495C0 1.23209 2.85844 3.25271 5.24868 3.25271 6.77647 3.25271 8.00856 2.43953 8.00856 0.985668 8.00856-1.1828 5.32261-3.27735 2.75987-3.27735 0.763893-3.27735 0-2.09455 0-1.03495Z" transform="matrix(1 0 0 -1.00439 694.828 131.781)"/><path d="M692.227 45.2449 692.227 24.6417" stroke="#000000" stroke-width="0.616043" fill="none" transform="matrix(1 0 0 1.00439 10.2674 85.375)"/><path d="M0-1.03495C0 1.23209 2.85844 3.25271 5.24868 3.25271 6.77647 3.25271 8.00856 2.43953 8.00856 0.985668 8.00856-1.1828 5.32261-3.27735 2.75987-3.27735 0.763893-3.27735 0-2.09455 0-1.03495Z" transform="matrix(1 0 0 -1.00439 723.097 125.594)"/><path d="M720.496 39.0845 720.496 18.4813" stroke="#000000" stroke-width="0.616043" fill="none" transform="matrix(1 0 0 1.00439 10.2674 85.375)"/><path d="M0-1.03495C0 1.23209 2.85844 3.25271 5.24868 3.25271 6.77647 3.25271 8.00856 2.43953 8.00856 0.985668 8.00856-1.1828 5.32261-3.27735 2.75987-3.27735 0.763893-3.27735 0-2.09455 0-1.03495Z" transform="matrix(1 0 0 -1.00439 751.401 125.594)"/><path d="M748.8 39.0845 748.8 18.4813" stroke="#000000" stroke-width="0.616043" fill="none" transform="matrix(1 0 0 1.00439 10.2674 85.375)"/><path d="M769.403 18.4813 769.403 43.123" stroke="#000000" stroke-width="0.342246" fill="none" transform="matrix(1 0 0 1.00439 10.2674 85.375)"/><path d="M769.574 18.4813 876.766 18.4813" stroke="#000000" stroke-width="0.342246" fill="none" transform="matrix(1 0 0 1.00439 10.2674 85.375)"/><path d="M769.574 24.6417 876.766 24.6417" stroke="#000000" stroke-width="0.342246" fill="none" transform="matrix(1 0 0 1.00439 10.2674 85.375)"/><path d="M769.574 30.8021 876.766 30.8021" stroke="#000000" stroke-width="0.342246" fill="none" transform="matrix(1 0 0 1.00439 10.2674 85.375)"/><path d="M769.574 36.9626 876.766 36.9626" stroke="#000000" stroke-width="0.342246" fill="none" transform="matrix(1 0 0 1.00439 10.2674 85.375)"/><path d="M769.574 43.123 876.766 43.123" stroke="#000000" stroke-width="0.342246" fill="none" transform="matrix(1 0 0 1.00439 10.2674 85.375)"/><path d="M0-1.03495C0 1.23209 2.85844 3.25271 5.24868 3.25271 6.77647 3.25271 8.00856 2.43953 8.00856 0.985668 8.00856-1.1828 5.32261-3.27735 2.75987-3.27735 0.763893-3.27735 0-2.09455 0-1.03495Z" transform="matrix(1 0 0 -1.00439 787.234 128.688)"/><path d="M784.633 42.1647 784.633 21.5615" stroke="#000000" stroke-width="0.616043" fill="none" transform="matrix(1 0 0 1.00439 10.2674 85.375)"/><path d="M0-1.03495C0 1.23209 2.85844 3.25271 5.24868 3.25271 6.77647 3.25271 8.00856 2.43953 8.00856 0.985668 8.00856-1.1828 5.32261-3.27735 2.75987-3.27735 0.763893-3.27735 0-2.09455 0-1.03495Z" transform="matrix(1 0 0 -1.00439 815.538 125.594)"/><path d="M812.937 39.0845 812.937 18.4813" stroke="#000000" stroke-width="0.616043" fill="none" transform="matrix(1 0 0 1.00439 10.2674 85.375)"/><path d="M5.24868 3.25271C6.77647 3.25271 8.00856 2.43953 8.00856 0.985668 8.00856-1.1828 5.32261-3.27735 2.75987-3.27735 0.763893-3.27735 0-2.09455 0-1.03495 0 1.25673 2.85844 3.25271 5.24868 3.25271ZM1.84813-2.11919C2.98165-2.11919 7.1461-0.0246417 7.1461 1.20744 7.1461 1.74956 6.75183 2.09455 6.16043 2.09455 5.00227 2.09455 0.86246-0.0246417 0.86246-1.23209 0.86246-1.45386 1.03495-2.11919 1.84813-2.11919Z" transform="matrix(1 0 0 -1.00439 843.807 122.5)"/><path d="M841.206 36.0043 841.206 15.4011" stroke="#000000" stroke-width="0.616043" fill="none" transform="matrix(1 0 0 1.00439 10.2674 85.375)"/><path d="M876.595 18.4813 876.595 43.123" stroke="#000000" stroke-width="0.342246" fill="none" transform="matrix(1 0 0 1.00439 10.2674 85.375)"/><path d="M876.766 18.4813 970.439 18.4813" stroke="#000000" stroke-width="0.342246" fill="none" transform="matrix(1 0 0 1.00439 10.2674 85.375)"/><path d="M876.766 24.6417 970.439 24.6417" stroke="#000000" stroke-width="0.342246" fill="none" transform="matrix(1 0 0 1.00439 10.2674 85.375)"/><path d="M876.766 30.8021 970.439 30.8021" stroke="#000000" stroke-width="0.342246" fill="none" transform="matrix(1 0 0 1.00439 10.2674 85.375)"/><path d="M876.766 36.9626 970.439 36.9626" stroke="#000000" stroke-width="0.342246" fill="none" transform="matrix(1 0 0 1.00439 10.2674 85.375)"/><path d="M876.766 43.123 970.439 43.123" stroke="#000000" stroke-width="0.342246" fill="none" transform="matrix(1 0 0 1.00439 10.2674 85.375)"/><path d="M5.24868 3.25271C6.77647 3.25271 8.00856 2.43953 8.00856 0.985668 8.00856-1.1828 5.32261-3.27735 2.75987-3.27735 0.763893-3.27735 0-2.09455 0-1.03495 0 1.25673 2.85844 3.25271 5.24868 3.25271ZM1.84813-2.11919C2.98165-2.11919 7.1461-0.0246417 7.1461 1.20744 7.1461 1.74956 6.75183 2.09455 6.16043 2.09455 5.00227 2.09455 0.86246-0.0246417 0.86246-1.23209 0.86246-1.45386 1.03495-2.11919 1.84813-2.11919Z" transform="matrix(1 0 0 -1.00439 894.426 122.5)"/><path d="M891.825 36.0043 891.825 15.4011" stroke="#000000" stroke-width="0.616043" fill="none" transform="matrix(1 0 0 1.00439 10.2674 85.375)"/><path d="M5.24868 3.25271C6.77647 3.25271 8.00856 2.43953 8.00856 0.985668 8.00856-1.1828 5.32261-3.27735 2.75987-3.27735 0.763893-3.27735 0-2.09455 0-1.03495 0 1.25673 2.85844 3.25271 5.24868 3.25271ZM1.84813-2.11919C2.98165-2.11919 7.1461-0.0246417 7.1461 1.20744 7.1461 1.74956 6.75183 2.09455 6.16043 2.09455 5.00227 2.09455 0.86246-0.0246417 0.86246-1.23209 0.86246-1.45386 1.03495-2.11919 1.84813-2.11919Z" transform="matrix(1 0 0 -1.00439 937.48 128.688)"/><path d="M934.879 42.1647 934.879 21.5615" stroke="#000000" stroke-width="0.616043" fill="none" transform="matrix(1 0 0 1.00439 10.2674 85.375)"/><path d="M970.267 18.4813 970.267 43.123" stroke="#000000" stroke-width="0.342246" fill="none" transform="matrix(1 0 0 1.00439 10.2674 85.375)"/><path d="M970.439 18.4813 1064.11 18.4813" stroke="#000000" stroke-width="0.342246" fill="none" transform="matrix(1 0 0 1.00439 10.2674 85.375)"/><path d="M970.439 24.6417 1064.11 24.6417" stroke="#000000" stroke-width="0.342246" fill="none" transform="matrix(1 0 0 1.00439 10.2674 85.375)"/><path d="M970.439 30.8021 1064.11 30.8021" stroke="#000000" stroke-width="0.342246" fill="none" transform="matrix(1 0 0 1.00439 10.2674 85.375)"/><path d="M970.439 36.9626 1064.11 36.9626" stroke="#000000" stroke-width="0.342246" fill="none" transform="matrix(1 0 0 1.00439 10.2674 85.375)"/><path d="M970.439 43.123 1064.11 43.123" stroke="#000000" stroke-width="0.342246" fill="none" transform="matrix(1 0 0 1.00439 10.2674 85.375)"/><path d="M5.24868 3.25271C6.77647 3.25271 8.00856 2.43953 8.00856 0.985668 8.00856-1.1828 5.32261-3.27735 2.75987-3.27735 0.763893-3.27735 0-2.09455 0-1.03495 0 1.25673 2.85844 3.25271 5.24868 3.25271ZM1.84813-2.11919C2.98165-2.11919 7.1461-0.0246417 7.1461 1.20744 7.1461 1.74956 6.75183 2.09455 6.16043 2.09455 5.00227 2.09455 0.86246-0.0246417 0.86246-1.23209 0.86246-1.45386 1.03495-2.11919 1.84813-2.11919Z" transform="matrix(1 0 0 -1.00439 988.098 122.5)"/><path d="M985.497 36.0043 985.497 15.4011" stroke="#000000" stroke-width="0.616043" fill="none" transform="matrix(1 0 0 1.00439 10.2674 85.375)"/><path d="M5.24868 3.25271C6.77647 3.25271 8.00856 2.43953 8.00856 0.985668 8.00856-1.1828 5.32261-3.27735 2.75987-3.27735 0.763893-3.27735 0-2.09455 0-1.03495 0 1.25673 2.85844 3.25271 5.24868 3.25271ZM1.84813-2.11919C2.98165-2.11919 7.1461-0.0246417 7.1461 1.20744 7.1461 1.74956 6.75183 2.09455 6.16043 2.09455 5.00227 2.09455 0.86246-0.0246417 0.86246-1.23209 0.86246-1.45386 1.03495-2.11919 1.84813-2.11919Z" transform="matrix(1 0 0 -1.00439 1031.15 128.688)"/><path d="M1028.55 42.1647 1028.55 21.5615" stroke="#000000" stroke-width="0.616043" fill="none" transform="matrix(1 0 0 1.00439 10.2674 85.375)"/><path d="M1063.94 18.4813 1063.94 43.123" stroke="#000000" stroke-width="0.342246" fill="none" transform="matrix(1 0 0 1.00439 10.2674 85.375)"/><path d="M1064.11 18.4813 1184.82 18.4813" stroke="#000000" stroke-width="0.342246" fill="none" transform="matrix(1 0 0 1.00439 10.2674 85.375)"/><path d="M1064.11 24.6417 1184.82 24.6417" stroke="#000000" stroke-width="0.342246" fill="none" transform="matrix(1 0 0 1.00439 10.2674 85.375)"/><path d="M1064.11 30.8021 1184.82 30.8021" stroke="#000000" stroke-width="0.342246" fill="none" transform="matrix(1 0 0 1.00439 10.2674 85.375)"/><path d="M1064.11 36.9626 1184.82 36.9626" stroke="#000000" stroke-width="0.342246" fill="none" transform="matrix(1 0 0 1.00439 10.2674 85.375)"/><path d="M1064.11 43.123 1184.82 43.123" stroke="#000000" stroke-width="0.342246" fill="none" transform="matrix(1 0 0 1.00439 10.2674 85.375)"/><path d="M0-1.03495C0 1.23209 2.85844 3.25271 5.24868 3.25271 6.77647 3.25271 8.00856 2.43953 8.00856 0.985668 8.00856-1.1828 5.32261-3.27735 2.75987-3.27735 0.763893-3.27735 0-2.09455 0-1.03495Z" transform="matrix(1 0 0 -1.00439 1081.77 125.594)"/><path d="M1079.17 39.0845 1079.17 18.4813" stroke="#000000" stroke-width="0.616043" fill="none" transform="matrix(1 0 0 1.00439 10.2674 85.375)"/><path d="M0-1.03495C0 1.23209 2.85844 3.25271 5.24868 3.25271 6.77647 3.25271 8.00856 2.43953 8.00856 0.985668 8.00856-1.1828 5.32261-3.27735 2.75987-3.27735 0.763893-3.27735 0-2.09455 0-1.03495Z" transform="matrix(1 0 0 -1.00439 1110.07 128.688)"/><path d="M1107.47 42.1647 1107.47 21.5615" stroke="#000000" stroke-width="0.616043" fill="none" transform="matrix(1 0 0 1.00439 10.2674 85.375)"/><path d="M0-1.03495C0 1.23209 2.85844 3.25271 5.24868 3.25271 6.77647 3.25271 8.00856 2.43953 8.00856 0.985668 8.00856-1.1828 5.32261-3.27735 2.75987-3.27735 0.763893-3.27735 0-2.09455 0-1.03495Z" transform="matrix(1 0 0 -1.00439 1138.34 125.594)"/><path d="M1135.74 39.0845 1135.74 18.4813" stroke="#000000" stroke-width="0.616043" fill="none" transform="matrix(1 0 0 1.00439 10.2674 85.375)"/><path d="M0-1.03495C0 1.23209 2.85844 3.25271 5.24868 3.25271 6.77647 3.25271 8.00856 2.43953 8.00856 0.985668 8.00856-1.1828 5.32261-3.27735 2.75987-3.27735 0.763893-3.27735 0-2.09455 0-1.03495Z" transform="matrix(1 0 0 -1.00439 1166.65 122.5)"/><path d="M1164.05 36.0043 1164.05 15.4011" stroke="#000000" stroke-width="0.616043" fill="none" transform="matrix(1 0 0 1.00439 10.2674 85.375)"/><path d="M1184.65 18.4813 1184.65 43.123" stroke="#000000" stroke-width="0.342246" fill="none" transform="matrix(1 0 0 1.00439 10.2674 85.375)"/><path d="M1184.82 18.4813 1263.13 18.4813" stroke="#000000" stroke-width="0.342246" fill="none" transform="matrix(1 0 0 1.00439 10.2674 85.375)"/><path d="M1184.82 24.6417 1263.13 24.6417" stroke="#000000" stroke-width="0.342246" fill="none" transform="matrix(1 0 0 1.00439 10.2674 85.375)"/><path d="M1184.82 30.8021 1263.13 30.8021" stroke="#000000" stroke-width="0.342246" fill="none" transform="matrix(1 0 0 1.00439 10.2674 85.375)"/><path d="M1184.82 36.9626 1263.13 36.9626" stroke="#000000" stroke-width="0.342246" fill="none" transform="matrix(1 0 0 1.00439 10.2674 85.375)"/><path d="M1184.82 43.123 1263.13 43.123" stroke="#000000" stroke-width="0.342246" fill="none" transform="matrix(1 0 0 1.00439 10.2674 85.375)"/><path d="M4.608 3.35127C8.00856 3.35127 9.19136 1.62635 9.19136 0.0246417 9.19136-1.57707 8.00856-3.30199 4.608-3.30199 1.20744-3.30199 0-1.57707 0 0.0246417 0 1.62635 1.20744 3.35127 4.608 3.35127ZM4.80513-2.51345C5.7908-2.51345 6.6779-2.31632 6.6779-1.10888 6.6779-0.492834 6.20971 1.10888 5.86473 1.74956 5.51974 2.41489 5.07619 2.56274 4.41087 2.56274 4.0166 2.56274 3.62233 2.51345 3.32663 2.41489 2.73523 2.21775 2.48881 1.82349 2.5381 1.15816 2.56274 0.517476 3.00629-1.08424 3.32663-1.70028 3.64697-2.31632 4.11517-2.51345 4.80513-2.51345Z" transform="matrix(1 0 0 -1.00439 1202.48 128.688)"/><path d="M1257.41 18.4813 1257.41 43.123" stroke="#000000" stroke-width="0.342246" fill="none" transform="matrix(1 0 0 1.00439 10.2674 85.375)"/><path d="M1261.59 18.4813 1261.59 43.123" stroke="#000000" stroke-width="3.08021" fill="none" transform="matrix(1 0 0 1.00439 10.2674 85.375)"/></g></g></g><path d="M80.7499 181.526 64.2285 133.628 66.1192 132.976 82.6406 180.874ZM61.8272 135.867 63 127 69.39 133.258Z"/><path d="M0.905546-0.424247 20.2772 40.9242 18.4661 41.7727-0.905546 0.424247ZM22.4282 38.444 22.2 47.3854 15.1838 41.838Z" transform="matrix(1 0 0 -1 81 181.385)"/><text font-family="Arial,Arial_MSFontService,sans-serif" font-weight="400" font-size="24" transform="translate(59.9439 209)">S</text><text font-family="Arial,Arial_MSFontService,sans-serif" font-weight="400" font-size="16" transform="translate(75.9439 214)">173</text><text font-family="Arial,Arial_MSFontService,sans-serif" font-weight="400" font-size="24" transform="translate(153.895 209)">S</text><text font-family="Arial,Arial_MSFontService,sans-serif" font-weight="400" font-size="16" transform="translate(169.895 214)">173</text><path d="M0.905546-0.424247 20.2772 40.9242 18.4661 41.7727-0.905546 0.424247ZM22.4282 38.444 22.2 47.3854 15.1838 41.838Z" transform="matrix(1 0 0 -1 175 181.385)"/><path d="M174.75 181.526 158.229 133.628 160.119 132.976 176.641 180.874ZM155.827 135.867 157 127 163.39 133.258Z"/><text font-family="Arial,Arial_MSFontService,sans-serif" font-weight="400" font-size="24" transform="translate(264.762 209)">S</text><text font-family="Arial,Arial_MSFontService,sans-serif" font-weight="400" font-size="16" transform="translate(280.762 214)">18</text><text font-family="Arial,Arial_MSFontService,sans-serif" font-weight="400" font-size="24" transform="translate(348.969 311)">S</text><text font-family="Arial,Arial_MSFontService,sans-serif" font-weight="400" font-size="16" transform="translate(364.969 316)">164</text><path d="M0.902691-0.43029 21.2985 42.3575 19.4932 43.2181-0.902691 0.43029ZM23.4329 39.8631 23.2645 48.8058 16.2114 43.3054Z" transform="matrix(1 0 0 -1 282 180.806)"/><path d="M280.508 180.984 277.5 140.723 279.494 140.574 282.502 180.835ZM274.607 142.276 278 134 282.585 141.68Z"/><path d="M281.055 181.471 252.92 140.076 254.574 138.952 282.709 180.347ZM251.189 142.865 250 134 257.805 138.368Z"/><path d="M369.369 282.599 334.584 137.716 336.529 137.249 371.314 282.133ZM331.978 139.713 334 131 339.757 137.845Z"/><path d="M0.999983-0.00579832 1.78579 135.515-0.214177 135.527-0.999983 0.00579832ZM4.77801 134.164 0.824462 142.188-3.22186 134.211Z" transform="matrix(1 0 0 -1 371 283.188)"/><text font-family="Arial,Arial_MSFontService,sans-serif" font-weight="400" font-size="24" transform="translate(153.895 311)">S</text><text font-family="Arial,Arial_MSFontService,sans-serif" font-weight="400" font-size="16" transform="translate(169.895 316)">98</text><path d="M0.493754-0.869602 105.563 58.7882 104.576 60.5274-0.493754 0.869602ZM105.885 55.5211 110.867 62.9495 101.935 62.4779Z" transform="matrix(1 0 0 -1 171 282.949)"/><path d="M0.997462-0.071205 4.9825 55.7524 2.98758 55.8948-0.997462 0.071205ZM7.87994 54.2089 4.45974 62.4734-0.099749 54.7785Z" transform="matrix(1 0 0 -1 171 282.473)"/><path d="M169.919 283.293 85.8939 224.636 87.0388 222.996 171.064 281.653ZM85.2701 227.859 81 220 89.8494 221.299Z"/><path d="M915.75 180.526 899.229 132.628 901.119 131.976 917.641 179.874ZM896.827 134.867 898 126 904.39 132.258Z"/><path d="M0.905546-0.424247 20.2772 40.9242 18.4661 41.7727-0.905546 0.424247ZM22.4282 38.444 22.2 47.3854 15.1838 41.838Z" transform="matrix(1 0 0 -1 917 179.385)"/><text font-family="Arial,Arial_MSFontService,sans-serif" font-weight="400" font-size="24" transform="translate(895.026 208)">S</text><text font-family="Arial,Arial_MSFontService,sans-serif" font-weight="400" font-size="16" transform="translate(911.026 213)">173</text><text font-family="Arial,Arial_MSFontService,sans-serif" font-weight="400" font-size="24" transform="translate(988.978 208)">S</text><text font-family="Arial,Arial_MSFontService,sans-serif" font-weight="400" font-size="16" transform="translate(1004.98 213)">173</text><path d="M0.905546-0.424247 20.2772 40.9242 18.4661 41.7727-0.905546 0.424247ZM22.4282 38.444 22.2 47.3854 15.1838 41.838Z" transform="matrix(1 0 0 -1 1011 179.385)"/><path d="M1009.75 179.526 993.229 131.628 995.119 130.976 1011.64 178.874ZM990.827 133.867 992 125 998.39 131.258Z"/><text font-family="Arial,Arial_MSFontService,sans-serif" font-weight="400" font-size="24" transform="translate(1099.84 207)">S</text><text font-family="Arial,Arial_MSFontService,sans-serif" font-weight="400" font-size="16" transform="translate(1115.84 212)">18</text><text font-family="Arial,Arial_MSFontService,sans-serif" font-weight="400" font-size="24" transform="translate(1184.05 309)">S</text><text font-family="Arial,Arial_MSFontService,sans-serif" font-weight="400" font-size="16" transform="translate(1200.05 314)">164</text><path d="M0.902691-0.43029 21.2985 42.3575 19.4932 43.2181-0.902691 0.43029ZM23.4329 39.8631 23.2645 48.8058 16.2114 43.3054Z" transform="matrix(1 0 0 -1 1117 179.806)"/><path d="M1115.51 178.984 1112.5 138.723 1114.49 138.574 1117.5 178.835ZM1109.61 140.276 1113 132 1117.58 139.68Z"/><path d="M1116.06 179.471 1087.92 138.076 1089.57 136.952 1117.71 178.347ZM1086.19 140.865 1085 132 1092.81 136.368Z"/><path d="M1204.37 281.599 1169.58 136.716 1171.53 136.249 1206.31 281.133ZM1166.98 138.713 1169 130 1174.76 136.845Z"/><path d="M0.999983-0.00579832 1.78579 135.515-0.214177 135.527-0.999983 0.00579832ZM4.77801 134.164 0.824462 142.188-3.22186 134.211Z" transform="matrix(1 0 0 -1 1206 281.188)"/><text font-family="Arial,Arial_MSFontService,sans-serif" font-weight="400" font-size="24" transform="translate(988.978 309)">S</text><text font-family="Arial,Arial_MSFontService,sans-serif" font-weight="400" font-size="16" transform="translate(1004.98 314)">98</text><path d="M0.493754-0.869602 105.563 58.7882 104.576 60.5274-0.493754 0.869602ZM105.885 55.5211 110.867 62.9495 101.935 62.4779Z" transform="matrix(1 0 0 -1 1006 280.949)"/><path d="M0.997462-0.071205 4.9825 55.7524 2.98758 55.8948-0.997462 0.071205ZM7.87994 54.2089 4.45974 62.4734-0.099749 54.7785Z" transform="matrix(1 0 0 -1 1006 281.473)"/><path d="M1005.92 282.293 921.894 223.636 923.039 221.996 1007.06 280.653ZM921.27 226.859 917 219 925.849 220.299Z"/><text font-family="Arial,Arial_MSFontService,sans-serif" font-weight="400" font-size="24" transform="translate(516.096 209)">S</text><text font-family="Arial,Arial_MSFontService,sans-serif" font-weight="400" font-size="16" transform="translate(532.096 214)">136</text><text font-family="Arial,Arial_MSFontService,sans-serif" font-weight="400" font-size="24" transform="translate(474.072 311)">S</text><text font-family="Arial,Arial_MSFontService,sans-serif" font-weight="400" font-size="16" transform="translate(490.072 316)">347</text><path d="M0.699607-0.714527 45.7826 43.4271 44.3834 44.8562-0.699607 0.714527ZM46.9287 40.3507 49.8465 48.8057 41.3319 46.0669Z" transform="matrix(1 0 0 -1 538 180.806)"/><path d="M0.903381-0.42884 19.447 38.6345 17.6402 39.4922-0.903381 0.42884ZM21.5853 36.1435 21.4025 45.0859 14.3583 39.5742Z" transform="matrix(1 0 0 -1 538 181.086)"/><path d="M536.744 181.112 528.374 140.731 530.332 140.325 538.703 180.706ZM525.707 142.645 528 134 533.54 141.022Z"/><path d="M536.772 181.745 501.643 141.672 503.147 140.354 538.276 180.427ZM500.266 144.653 498 136 506.281 139.379Z"/><path d="M0.831695-0.555232 39.1547 56.8497 37.4913 57.9602-0.831695 0.555232ZM40.9095 54.0751 42.0246 62.9496 34.2559 58.517Z" transform="matrix(1 0 0 -1 496 282.95)"/><path d="M494.455 283.539 443.407 147.593 445.28 146.89 496.327 282.836ZM441.068 149.896 442 141 448.557 147.083Z"/><path d="M494.448 283.357 471.143 147.74 473.115 147.401 496.419 283.018ZM468.413 149.562 471 141 476.297 148.207Z"/><text font-family="Arial,Arial_MSFontService,sans-serif" font-weight="400" font-size="24" transform="translate(244.361 401)">S</text><text font-family="Arial,Arial_MSFontService,sans-serif" font-weight="400" font-size="16" transform="translate(260.361 406)">277</text><text font-family="Arial,Arial_MSFontService,sans-serif" font-weight="400" font-size="24" transform="translate(587.297 401)">S</text><text font-family="Arial,Arial_MSFontService,sans-serif" font-weight="400" font-size="16" transform="translate(603.297 406)">164</text><path d="M608.809 374.767 501.645 325.685 502.478 323.867 609.642 372.949ZM501.608 328.968 496 322 504.939 321.695Z"/><path d="M0.999139-0.0414845 10.8072 236.182 8.80892 236.265-0.999139 0.0414845ZM13.7493 234.725 10.0846 242.884 5.75619 235.057Z" transform="matrix(1 0 0 -1 609 373.884)"/><path d="M0.444156-0.895949 99.0791 48.0011 98.1908 49.793-0.444156 0.895949ZM99.2171 44.7211 104.608 51.8582 95.6639 51.8887Z" transform="matrix(1 0 0 -1 266 373.858)"/><path d="M265.446 374.736 176.371 326.074 177.33 324.319 266.405 372.981ZM176.103 329.346 171 322 179.938 322.325Z"/><text font-family="Arial,Arial_MSFontService,sans-serif" font-weight="400" font-size="24" transform="translate(1078.25 401)">S</text><text font-family="Arial,Arial_MSFontService,sans-serif" font-weight="400" font-size="16" transform="translate(1094.25 406)">277</text><path d="M0.451772-0.892133 100.309 49.6749 99.4052 51.4592-0.451772 0.892133ZM100.475 46.3962 105.805 53.5789 96.8604 53.5333Z" transform="matrix(1 0 0 -1 1100 373.579)"/><path d="M1099.23 374.447 1011.29 324.177 1012.28 322.44 1100.23 372.711ZM1010.96 327.443 1006 320 1014.93 320.497Z"/><text font-family="Arial,Arial_MSFontService,sans-serif" font-weight="400" font-size="24" transform="translate(743.364 209)">S</text><text font-family="Arial,Arial_MSFontService,sans-serif" font-weight="400" font-size="16" transform="translate(759.364 214)">136</text><text font-family="Arial,Arial_MSFontService,sans-serif" font-weight="400" font-size="24" transform="translate(701.34 311)">S</text><text font-family="Arial,Arial_MSFontService,sans-serif" font-weight="400" font-size="16" transform="translate(717.34 316)">347</text><path d="M0.699607-0.714527 45.7826 43.4271 44.3834 44.8562-0.699607 0.714527ZM46.9287 40.3507 49.8465 48.8057 41.3319 46.0669Z" transform="matrix(1 0 0 -1 765 180.806)"/><path d="M0.903381-0.42884 19.447 38.6345 17.6402 39.4922-0.903381 0.42884ZM21.5853 36.1435 21.4025 45.0859 14.3583 39.5742Z" transform="matrix(1 0 0 -1 765 181.086)"/><path d="M763.744 181.112 755.374 140.731 757.332 140.325 765.703 180.706ZM752.707 142.645 755 134 760.54 141.022Z"/><path d="M763.772 181.745 728.643 141.672 730.147 140.354 765.276 180.427ZM727.266 144.653 725 136 733.281 139.379Z"/><path d="M0.831695-0.555232 39.1547 56.8497 37.4913 57.9602-0.831695 0.555232ZM40.9095 54.0751 42.0246 62.9496 34.2559 58.517Z" transform="matrix(1 0 0 -1 723 282.95)"/><path d="M721.455 283.539 670.407 147.593 672.28 146.89 723.327 282.836ZM668.068 149.896 669 141 675.557 147.083Z"/><path d="M721.448 283.357 698.143 147.74 700.115 147.401 723.419 283.018ZM695.413 149.562 698 141 703.297 148.207Z"/><text font-family="Arial,Arial_MSFontService,sans-serif" font-weight="400" font-size="24" transform="translate(814.565 401)">S</text><text font-family="Arial,Arial_MSFontService,sans-serif" font-weight="400" font-size="16" transform="translate(830.565 406)">164</text><path d="M835.809 374.767 728.645 325.685 729.478 323.867 836.642 372.949ZM728.608 328.968 723 322 731.939 321.695Z"/><path d="M0.999139-0.0414845 10.8072 236.182 8.80892 236.265-0.999139 0.0414845ZM13.7493 234.725 10.0846 242.884 5.75619 235.057Z" transform="matrix(1 0 0 -1 836 373.884)"/><text font-family="Arial,Arial_MSFontService,sans-serif" font-weight="400" font-size="24" transform="translate(327.817 578)">S</text><text font-family="Arial,Arial_MSFontService,sans-serif" font-weight="400" font-size="16" transform="translate(343.817 583)">136</text><path d="M0.18021-0.983628 744.061 135.302 743.701 137.27-0.18021 0.983628ZM743.282 132.11 750.431 137.486 741.841 139.979Z" transform="matrix(1 0 0 -1 349 549.486)"/><path d="M0.271823-0.962347 480.606 134.712 480.062 136.636-0.271823 0.962347ZM480.137 131.462 486.749 137.486 477.963 139.161Z" transform="matrix(1 0 0 -1 349 549.486)"/><path d="M0.46819-0.883628 254.058 133.481 253.121 135.248-0.46819 0.883628ZM254.285 130.206 259.481 137.486 250.539 137.275Z" transform="matrix(1 0 0 -1 349 549.486)"/><path d="M348.6 550.005 268.605 418.218 270.314 417.18 350.31 548.967ZM266.732 420.914 266 412 273.57 416.763Z"/><rect x="-40" y="-28" width="1320" height="810" fill="url(#fill1)"/></g></svg>